# xmcd
#
# Track frame offsets: 
#        150
#        13109
#        35069
#        50748
#        68759
#        86021
#        98581
#        125561
#        143408
#        163903
#        188696
#        202897
#        218902
#        227174
#        246944
#
# Disc length: 3633 seconds
#
# Revision: 0
# Processed by: cddbd v1.5.2PL0 Copyright (c) Steve Scherf et al.
# Submitted via: ExactAudioCopy v0.95b2
#
DISCID=d20e2f0f
DTITLE=As Bastianas - Colcha de Retalhos
DYEAR=1900
DGENRE=Nordeste Femino
TTITLE0=Caminhante
TTITLE1=Ao rei do Baião
TTITLE2=Prenúncio de Sabiá
TTITLE3=Eu Acredito
TTITLE4=Xô Passarinho
TTITLE5=Lá Vem Batista
TTITLE6=Galope dos Dias
TTITLE7=Morena
TTITLE8=Samba na Casa de Rosa - Cajueiro - Ajoelha - Mineiro Pau - Est
TTITLE8=rela Dalva
TTITLE9=Baião de Dois
TTITLE10=Festejo Junino
TTITLE11=Bem Maior
TTITLE12=Tamborete de Forró
TTITLE13=Tambor de Peito
TTITLE14=Saudosa Solitude
EXTD=
EXTT0=
EXTT1=
EXTT2=
EXTT3=
EXTT4=
EXTT5=
EXTT6=
EXTT7=
EXTT8=
EXTT9=
EXTT10=
EXTT11=
EXTT12=
EXTT13=
EXTT14=
PLAYORDER=
